<?xml version="1.0" standalone="no"?><!DOCTYPE svg PUBLIC "-//W3C//DTD SVG 1.1//EN" "http://www.w3.org/Graphics/SVG/1.1/DTD/svg11.dtd"><svg t="1573095146758" class="icon" viewBox="0 0 1024 1024" version="1.1" xmlns="http://www.w3.org/2000/svg" p-id="2057" width="32" height="32" xmlns:xlink="http://www.w3.org/1999/xlink"><defs><style type="text/css"></style></defs><path d="M618.666667 939.52h106.410666a64 64 0 0 0 64.256-63.872v-385.237333a21.333333 21.333333 0 0 1 21.376-21.333334l104.533334 0.213334a24.32 24.32 0 0 0 18.773333-8.576c7.509333-9.088 5.888-21.973333-4.906667-30.08l-402.133333-340.48c-8.661333-6.485333-21.12-6.485333-28.8-0.853334l-404.181333 341.973334a20.650667 20.650667 0 0 0-8.576 16.469333c0 11.52 10.24 21.333333 23.466666 21.333333H213.333333a21.333333 21.333333 0 0 1 21.333334 21.546667v385.066667c0 34.986667 28.885333 63.829333 64.256 63.829333H405.333333V725.333333c0-58.026667 38.954667-106.666667 89.6-106.666666h34.133334c50.645333 0 89.6 48.64 89.6 106.666666v214.186667z m-42.666667 0V725.333333c0-36.266667-22.186667-64-46.933333-64h-34.133334c-24.746667 0-46.933333 27.733333-46.933333 64v214.186667h128z m256-427.733333v363.861333a106.666667 106.666667 0 0 1-106.922667 106.538667H298.922667A106.922667 106.922667 0 0 1 192 875.690667v-363.946667H108.885333c-36.309333 0-66.133333-28.416-66.133333-64 0-19.882667 9.514667-38.570667 24.661333-49.834667l404.224-341.930666a68.266667 68.266667 0 0 1 81.877334 0.768l402.176 340.522666c29.184 21.802667 34.346667 62.592 11.306666 90.581334a66.986667 66.986667 0 0 1-51.797333 24.106666l-83.2-0.170666z" p-id="2058"></path></svg>