<?xml version="1.0" standalone="no"?><!DOCTYPE svg PUBLIC "-//W3C//DTD SVG 1.1//EN" "http://www.w3.org/Graphics/SVG/1.1/DTD/svg11.dtd"><svg t="1573095250473" class="icon" viewBox="0 0 1024 1024" version="1.1" xmlns="http://www.w3.org/2000/svg" p-id="5182" xmlns:xlink="http://www.w3.org/1999/xlink" width="32" height="32"><defs><style type="text/css"></style></defs><path d="M712.704 472.064c40.448-47.616 63.488-108.032 63.488-171.52C776.192 154.624 657.408 35.84 511.488 35.84 365.568 35.84 246.784 154.624 246.784 300.544c0 64 22.528 123.904 63.488 171.52-48.64 19.968-92.672 49.664-130.048 87.04-75.264 75.264-116.736 175.616-116.736 282.112 0 80.384 65.536 145.92 145.92 145.92H814.08c38.912 0 75.776-15.36 103.424-43.008 27.648-27.648 43.008-64 43.008-103.424-0.512-162.304-100.352-307.712-247.808-368.64zM511.488 92.672c114.688 0 207.872 93.184 207.872 207.872 0 62.976-28.16 121.856-76.8 161.28-37.376 30.208-82.432 46.08-130.56 46.08-6.144 0-11.776 0-17.92-0.512-5.632-0.512-11.264-1.024-16.384-2.048-1.024 0-2.048-0.512-2.56-0.512-34.304-6.144-66.048-20.48-93.696-43.008-49.152-39.424-76.8-98.304-76.8-161.28-1.024-114.688 92.16-207.872 206.848-207.872z m365.056 811.008c-16.896 16.896-38.912 26.112-62.976 26.112h-604.16c-49.152 0-89.088-39.936-89.088-89.088 0-91.136 35.328-177.152 100.352-241.664 38.4-38.4 85.504-67.072 136.704-83.968 1.024 1.024 2.048 1.536 3.584 2.048 1.024 1.024 2.56 1.536 4.096 2.56 1.536 1.024 3.584 2.56 5.12 3.584 1.024 1.024 2.56 1.536 3.584 2.56 2.048 1.024 4.096 2.56 6.144 3.584 1.024 0.512 2.048 1.536 3.584 2.048 2.56 1.536 5.12 3.072 7.68 4.096 0.512 0.512 1.024 0.512 1.536 1.024 3.072 1.536 6.656 3.072 9.728 4.608l3.072 1.536c2.048 1.024 4.608 2.048 6.656 3.072 1.536 0.512 2.56 1.024 4.096 1.536 2.048 1.024 4.096 1.536 6.144 2.56 1.536 0.512 3.072 1.024 4.096 1.536 2.048 0.512 4.096 1.536 6.144 2.048l4.608 1.536 6.144 1.536c1.536 0.512 3.072 1.024 4.608 1.024l6.144 1.536c1.536 0.512 3.072 0.512 4.608 1.024 2.048 0.512 4.096 1.024 6.144 1.024 1.536 0.512 3.072 0.512 4.608 1.024 2.048 0.512 4.096 0.512 6.144 1.024 1.536 0 3.072 0.512 4.608 0.512 2.048 0.512 4.096 0.512 6.656 0.512 1.536 0 3.072 0.512 4.096 0.512 2.56 0 4.608 0.512 7.168 0.512H526.848c2.56 0 4.608-0.512 7.168-0.512 1.536 0 3.072-0.512 4.096-0.512 2.048 0 4.608-0.512 6.656-0.512 1.536 0 3.072-0.512 4.608-0.512 2.048-0.512 4.096-0.512 6.144-1.024 1.536 0 3.072-0.512 4.608-1.024 2.048-0.512 4.096-0.512 6.144-1.024 1.536-0.512 3.072-0.512 4.608-1.024l6.144-1.536c1.536-0.512 3.072-0.512 4.608-1.024l6.144-1.536 4.608-1.536c2.048-0.512 4.096-1.536 6.144-2.048 1.536-0.512 3.072-1.024 4.096-1.536 2.048-0.512 4.096-1.536 6.144-2.56 1.536-0.512 2.56-1.024 4.096-1.536 2.56-1.024 4.608-2.048 7.168-3.072l3.072-1.536c3.072-1.536 6.656-3.072 9.728-4.608 0.512 0 1.024-0.512 1.536-0.512 2.56-1.536 5.632-2.56 8.192-4.096 1.024-0.512 2.048-1.024 3.072-2.048 2.048-1.024 4.096-2.56 6.144-3.584 1.024-0.512 2.56-1.536 3.584-2.56 2.048-1.024 3.584-2.56 5.632-3.584 1.024-1.024 2.56-1.536 3.584-2.56 1.024-1.024 2.048-1.536 3.584-2.56 140.288 45.056 237.056 177.152 237.056 325.632-2.56 24.064-11.776 46.08-28.672 62.976z" fill="#8a8a8a" p-id="5183"></path></svg>