<?xml version="1.0" standalone="no"?><!DOCTYPE svg PUBLIC "-//W3C//DTD SVG 1.1//EN" "http://www.w3.org/Graphics/SVG/1.1/DTD/svg11.dtd"><svg t="1573095230930" class="icon" viewBox="0 0 1024 1024" version="1.1" xmlns="http://www.w3.org/2000/svg" p-id="4311" xmlns:xlink="http://www.w3.org/1999/xlink" width="32" height="32"><defs><style type="text/css"></style></defs><path d="M878.964254 729.443357 389.416616 729.443357c-42.11826 0-67.986417-23.798009-76.885088-70.792323L249.861186 183.548386l-0.748037-8.771781c-4.148483-50.114374-10.401908-125.858476-140.080385-125.858476-15.438621 0-27.952632 12.521175-27.952632 27.952632 0 15.438621 12.514012 27.959795 27.952632 27.959795 78.192873 0 80.389912 26.477025 84.362386 74.55502l0.909719 10.339486 62.901609 476.985532 0.216941 1.439792c13.598716 73.395614 62.929238 117.198236 131.993197 117.198236l489.546615 0c15.439644 0 27.952632-12.493545 27.952632-27.951609C906.91791 741.978858 894.403898 729.443357 878.964254 729.443357z" p-id="4312" fill="#d81e06"></path><path d="M947.624007 187.004091c-17.893532-20.041452-44.051285-30.632671-75.647911-30.632671L333.839833 156.37142c-15.438621 0-27.959795 12.514012-27.959795 27.952632s12.521175 27.959795 27.959795 27.959795l538.137287 0c10.618848 0 25.112957 2.070148 33.926694 11.948123 8.93244 9.996678 9.463536 25.295106 8.260128 36.612872l-41.781592 248.946862c-3.315512 19.208481-19.572778 53.233412-59.459207 59.935044l-411.027307 26.987654c-15.410991 1.006933-27.085892 14.325263-26.071795 29.729092 0.979304 14.774495 13.270235 26.119891 27.875884 26.119891 0.608867 0 1.238201-0.027629 1.854231-0.056282l412.335093-27.071565 2.420119-0.267083c63.075571-9.695826 99.277074-60.158125 107.186208-105.999173l41.937135-249.848395 0.201591-1.469468C974.317972 226.660276 960.249559 201.149253 947.624007 187.004091z" p-id="4313" fill="#d81e06"></path><path d="M820.42807 461.637985c-7.653307-1.084705-14.724353 4.218068-15.815197 11.857049-0.068562 0.490164-0.873903 5.232165-7.441483 21.035082-2.961448 7.136537 0.425695 15.306614 7.546883 18.272155 1.763157 0.727571 3.581572 1.077541 5.366218 1.077541 5.476735 0 10.67513-3.245927 12.913101-8.618285 8.106632-19.524682 8.995885-25.756617 9.295714-27.806299C833.383126 469.808062 828.075237 462.72883 820.42807 461.637985z" p-id="4314" fill="#d81e06"></path><path d="M843.828013 409.327596l15.249309-90.518596c2.742461-24.077372-5.204535-38.669718-12.353352-46.679136-10.472516-11.716856-26.400277-17.915022-46.098921-17.915022l-89.39296 0c-7.729032 0-13.976316 6.260587-13.976316 13.976316 0 7.722892 6.247284 13.976316 13.976316 13.976316l89.39296 0c8.022721 0 18.901489 1.489934 25.238824 8.583492 4.875031 5.441942 6.701632 13.821797 5.54018 24.15412l-15.153118 89.763396c-1.281179 7.611352 3.848655 14.829753 11.464099 16.109909 0.784876 0.13303 1.574868 0.194428 2.336208 0.194428C836.75492 420.973844 842.667583 416.147932 843.828013 409.327596z" p-id="4315" fill="#d81e06"></path><path d="M367.171985 813.316603c-35.626405 0-64.510246 28.876678-64.510246 64.49592 0 35.632545 28.883841 64.523549 64.510246 64.523549 35.625382 0 64.510246-28.888957 64.510246-64.523549C431.682231 842.193281 402.798391 813.316603 367.171985 813.316603z" p-id="4316" fill="#d81e06"></path><path d="M814.454008 813.316603c-35.624359 0-64.510246 28.876678-64.510246 64.49592 0 35.632545 28.885887 64.523549 64.510246 64.523549 35.627429 0 64.510246-28.888957 64.510246-64.523549C878.964254 842.193281 850.08246 813.316603 814.454008 813.316603z" p-id="4317" fill="#d81e06"></path></svg>